{
  "accessors": [
    {
      "bufferView": 2,
      "componentType": 5126,
      "count": 4878,
      "max": [
        4.381870269775391,
        2.2668838500976563,
        1.316702961921692
      ],
      "min": [
        -4.602231979370117,
        -1.1192175149917603,
        -6.03787899017334
      ],
      "type": "VEC3"
    },
    {
      "bufferView": 2,
      "byteOffset": 58536,
      "componentType": 5126,
      "count": 4878,
      "max": [
        1.0,
        1.0,
        1.0
      ],
      "min": [
        -1.0,
        -1.0,
        -1.0
      ],
      "type": "VEC3"
    },
    {
      "bufferView": 1,
      "componentType": 5126,
      "count": 4878,
      "max": [
        0.9311885237693787,
        0.8904974460601807
      ],
      "min": [
        0.0002420371602056548,
        0.0002420371602056548
      ],
      "type": "VEC2"
    },
    {
      "bufferView": 0,
      "componentType": 5125,
      "count": 15603,
      "type": "SCALAR"
    },
    {
      "bufferView": 2,
      "byteOffset": 117072,
      "componentType": 5126,
      "count": 2863,
      "max": [
        3.6884543895721436,
        2.1573925018310547,
        1.3817920684814453
      ],
      "min": [
        -3.790111541748047,
        -1.0477374792099,
        -5.005419731140137
      ],
      "type": "VEC3"
    },
    {
      "bufferView": 2,
      "byteOffset": 151428,
      "componentType": 5126,
      "count": 2863,
      "max": [
        1.0,
        1.0,
        1.0
      ],
      "min": [
        -1.0,
        -1.0,
        -1.0
      ],
      "type": "VEC3"
    },
    {
      "bufferView": 1,
      "byteOffset": 39024,
      "componentType": 5126,
      "count": 2863,
      "max": [
        0.9458166360855103,
        0.9912641644477844
      ],
      "min": [
        0.16883671283721924,
        0.0002420371602056548
      ],
      "type": "VEC2"
    },
    {
      "bufferView": 0,
      "byteOffset": 62412,
      "componentType": 5125,
      "count": 9150,
      "type": "SCALAR"
    },
    {
      "bufferView": 2,
      "byteOffset": 185784,
      "componentType": 5126,
      "count": 50,
      "max": [
        0.4227694869041443,
        1.7024836540222168,
        -0.7464594841003418
      ],
      "min": [
        -0.4282585382461548,
        1.343153953552246,
        -0.8628821969032288
      ],
      "type": "VEC3"
    },
    {
      "bufferView": 2,
      "byteOffset": 186384,
      "componentType": 5126,
      "count": 50,
      "max": [
        0.8829306960105896,
        0.7205565571784973,
        0.9235498905181885
      ],
      "min": [
        -0.8849183917045593,
        -0.16788557171821594,
        -0.9868867993354797
      ],
      "type": "VEC3"
    },
    {
      "bufferView": 1,
      "byteOffset": 61928,
      "componentType": 5126,
      "count": 50,
      "max": [
        0.7608904838562012,
        0.8903384804725647
      ],
      "min": [
        0.727475643157959,
        0.8198888301849365
      ],
      "type": "VEC2"
    },
    {
      "bufferView": 0,
      "byteOffset": 99012,
      "componentType": 5125,
      "count": 120,
      "type": "SCALAR"
    }
  ],
  "asset": {
    "extras": {
      "author": "Leonardo moreira (https://sketchfab.com/Leon.Moreira)",
      "license": "CC-BY-4.0 (http://creativecommons.org/licenses/by/4.0/)",
      "source": "https://sketchfab.com/3d-models/old-airplane-638bbab41d834f648d78dfaf29c73684",
      "title": "Old Airplane"
    },
    "generator": "Sketchfab-12.65.0",
    "version": "2.0"
  },
  "bufferViews": [
    {
      "buffer": 0,
      "byteLength": 99492,
      "name": "floatBufferViews",
      "target": 34963
    },
    {
      "buffer": 0,
      "byteLength": 62328,
      "byteOffset": 99492,
      "byteStride": 8,
      "name": "floatBufferViews",
      "target": 34962
    },
    {
      "buffer": 0,
      "byteLength": 186984,
      "byteOffset": 161820,
      "byteStride": 12,
      "name": "floatBufferViews",
      "target": 34962
    }
  ],
  "buffers": [
    {
      "byteLength": 348804,
      "uri": "scene.bin"
    }
  ],
  "extensionsUsed": [
    "KHR_materials_transmission"
  ],
  "images": [
    {
      "uri": "textures/base_color_baseColor.png"
    },
    {
      "uri": "textures/VIDRO_baseColor.png"
    }
  ],
  "materials": [
    {
      "doubleSided": true,
      "name": "base_color",
      "pbrMetallicRoughness": {
        "baseColorTexture": {
          "index": 0
        },
        "roughnessFactor": 0.42262133156381004
      }
    },
    {
      "doubleSided": true,
      "name": "metal",
      "pbrMetallicRoughness": {
        "roughnessFactor": 0.152487
      }
    },
    {
      "alphaMode": "BLEND",
      "doubleSided": true,
      "extensions": {
        "KHR_materials_transmission": {
          "transmissionFactor": 1.0
        }
      },
      "name": "VIDRO",
      "pbrMetallicRoughness": {
        "baseColorFactor": [
          0.3839882976631707,
          0.38016084430503994,
          0.38016084430503994,
          0.25
        ],
        "baseColorTexture": {
          "index": 1
        },
        "metallicFactor": 0.0,
        "roughnessFactor": 0.0
      }
    }
  ],
  "meshes": [
    {
      "name": "Object_0",
      "primitives": [
        {
          "attributes": {
            "NORMAL": 1,
            "POSITION": 0,
            "TEXCOORD_0": 2
          },
          "indices": 3,
          "material": 0,
          "mode": 4
        }
      ]
    },
    {
      "name": "Object_1",
      "primitives": [
        {
          "attributes": {
            "NORMAL": 5,
            "POSITION": 4,
            "TEXCOORD_0": 6
          },
          "indices": 7,
          "material": 1,
          "mode": 4
        }
      ]
    },
    {
      "name": "Object_2",
      "primitives": [
        {
          "attributes": {
            "NORMAL": 9,
            "POSITION": 8,
            "TEXCOORD_0": 10
          },
          "indices": 11,
          "material": 2,
          "mode": 4
        }
      ]
    }
  ],
  "nodes": [
    {
      "children": [
        1
      ],
      "matrix": [
        1.0,
        0.0,
        0.0,
        0.0,
        0.0,
        2.220446049250313e-16,
        -1.0,
        0.0,
        0.0,
        1.0,
        2.220446049250313e-16,
        0.0,
        0.0,
        0.0,
        0.0,
        1.0
      ],
      "name": "Sketchfab_model"
    },
    {
      "children": [
        2
      ],
      "name": "root"
    },
    {
      "children": [
        3
      ],
      "matrix": [
        1.0,
        0.0,
        0.0,
        0.0,
        0.0,
        2.220446049250313e-16,
        1.0,
        0.0,
        0.0,
        -1.0,
        2.220446049250313e-16,
        0.0,
        0.0,
        0.0,
        0.0,
        1.0
      ],
      "name": "GLTF_SceneRootNode"
    },
    {
      "children": [
        4,
        5,
        6
      ],
      "matrix": [
        1.0,
        0.0,
        -0.0,
        0.0,
        0.0,
        0.9788792267391411,
        -0.20443937844402957,
        0.0,
        0.0,
        0.20443937844402957,
        0.9788792267391411,
        0.0,
        0.24272871017456055,
        0.6435160636901855,
        -0.5533483624458313,
        1.0
      ],
      "name": "aviao_0"
    },
    {
      "mesh": 0,
      "name": "Object_4"
    },
    {
      "mesh": 1,
      "name": "Object_5"
    },
    {
      "mesh": 2,
      "name": "Object_6"
    }
  ],
  "samplers": [
    {
      "magFilter": 9729,
      "minFilter": 9987,
      "wrapS": 10497,
      "wrapT": 10497
    }
  ],
  "scene": 0,
  "scenes": [
    {
      "name": "Sketchfab_Scene",
      "nodes": [
        0
      ]
    }
  ],
  "textures": [
    {
      "sampler": 0,
      "source": 0
    },
    {
      "sampler": 0,
      "source": 1
    }
  ]
}
